# xmcd
# Track frame offsets:
# 150
# 15754
# 30362
# 52145
# 67038
# 81465
# 94791
# 111105
# 132337
# 151969
# 169046
# 184335
# 197751
# 213526
# 226858
# 244612
# 262984
# 276269
# 289436
#
# Disc length: 4038 seconds
# Revision: 0
# Processed by: cddbd v1.5PL3 Copyright (c) Steve Scherf et al.
# Submitted via: VisiTrax 2.9.9.202 - For more info visit www.synapsa.com
#
DISCID=0f0fc413
DTITLE=Brooks and Dunn - The Greatest Hits Collection
DYEAR=1997
DGENRE=
TTITLE0=My Maria
TTITLE1=Honky Tonk Truth
TTITLE2=You're Gonna Miss Me When I'm Gone
TTITLE3=Boot Scootin' Boogie
TTITLE4=He's Got You
TTITLE5=Hard Workin' Man
TTITLE6=That Ain't No Way To Go
TTITLE7=Rock My World (Little Country Girl)
TTITLE8=Neon moon
TTITLE9=Lost And Found
TTITLE10=She's Not The Cheatin' Kind
TTITLE11=Brand New Man
TTITLE12=Days Of Thunder
TTITLE13=We'll Burn That Bridge
TTITLE14=She Used To Be Mine
TTITLE15=Mama Don't Get Dressed Up For Nothin'
TTITLE16=My Next Broken Heart
TTITLE17=Whiskey Under The Bridge
TTITLE18=Little Miss Honky Tonk
EXTD=
EXTT0=
EXTT1=
EXTT2=
EXTT3=
EXTT4=
EXTT5=
EXTT6=
EXTT7=
EXTT8=
EXTT9=
EXTT10=
EXTT11=
EXTT12=
EXTT13=
EXTT14=
EXTT15=
EXTT16=
EXTT17=
EXTT18=
PLAYORDER=
